<mxfile host="app.diagrams.net" agent="Mozilla/5.0 (Windows NT 10.0; Win64; x64) AppleWebKit/537.36 (KHTML, like Gecko) Chrome/129.0.0.0 Safari/537.36" version="26.1.0">
  <diagram name="Page-1" id="1UWb9Hu68beZE89ukYpq">
    <mxGraphModel dx="1574" dy="1466" grid="1" gridSize="10" guides="1" tooltips="1" connect="1" arrows="1" fold="1" page="1" pageScale="1" pageWidth="850" pageHeight="1100" math="0" shadow="0">
      <root>
        <mxCell id="0" />
        <mxCell id="1" parent="0" />
        <UserObject label="&#xa;data_platform.fnd.surveyCustomer_vacOsr_vaccine&#xa;&#xa;" link="&#xa;data_platform.fnd.surveyCustomer_vacOsr_vaccine&#xa;&#xa;" id="TDLZ0vSAHUHrGehwGuY5-1">
          <mxCell style="rounded=0;whiteSpace=wrap;html=1;" vertex="1" parent="1">
            <mxGeometry x="-680" y="-470" width="380" height="60" as="geometry" />
          </mxCell>
        </UserObject>
        <UserObject label="&#xa;data_platform.dim.person_vac&#xa;&#xa;" link="&#xa;data_platform.dim.person_vac&#xa;&#xa;" id="TDLZ0vSAHUHrGehwGuY5-4">
          <mxCell style="rounded=0;whiteSpace=wrap;html=1;" vertex="1" parent="1">
            <mxGeometry x="-680" y="-190" width="380" height="60" as="geometry" />
          </mxCell>
        </UserObject>
        <mxCell id="TDLZ0vSAHUHrGehwGuY5-5" value="" style="rounded=0;whiteSpace=wrap;html=1;" vertex="1" parent="1">
          <mxGeometry x="-680" y="-330" width="380" height="60" as="geometry" />
        </mxCell>
        <mxCell id="TDLZ0vSAHUHrGehwGuY5-6" value="data_platform.fnd.orderDetailAttachmentVersion2_oms_flc" style="rounded=0;whiteSpace=wrap;html=1;" vertex="1" parent="1">
          <mxGeometry x="-680" y="-50" width="380" height="60" as="geometry" />
        </mxCell>
        <UserObject label="&#xa;data_platform.dim.vaccineDiseaseGroup_vac&#xa;&#xa;" link="&#xa;data_platform.dim.vaccineDiseaseGroup_vac&#xa;&#xa;" id="TDLZ0vSAHUHrGehwGuY5-7">
          <mxCell style="rounded=0;whiteSpace=wrap;html=1;" vertex="1" parent="1">
            <mxGeometry x="-680" y="90" width="380" height="60" as="geometry" />
          </mxCell>
        </UserObject>
        <UserObject label="&#xa;data_platform.fact.saleTransaction_vac&#xa;&#xa;" link="&#xa;data_platform.fact.saleTransaction_vac&#xa;&#xa;" id="TDLZ0vSAHUHrGehwGuY5-12">
          <mxCell style="text;html=1;align=center;verticalAlign=middle;whiteSpace=wrap;rounded=0;" vertex="1" parent="1">
            <mxGeometry x="-510" y="-310" width="60" height="30" as="geometry" />
          </mxCell>
        </UserObject>
        <UserObject label="data_platform.dim.asmRsm_flc" link="&#xa;data_platform.dim.vaccineDiseaseGroup_vac&#xa;&#xa;" id="TDLZ0vSAHUHrGehwGuY5-14">
          <mxCell style="rounded=0;whiteSpace=wrap;html=1;" vertex="1" parent="1">
            <mxGeometry x="-680" y="210" width="380" height="60" as="geometry" />
          </mxCell>
        </UserObject>
      </root>
    </mxGraphModel>
  </diagram>
</mxfile>
